<svg width="270" height="270" viewBox="0 0 270 270" fill="none" xmlns="http://www.w3.org/2000/svg">
<path d="M121.575 22.5C115.758 22.5 110.201 24.7985 106.084 28.916L101.25 33.75H44.9999C43.5092 33.7289 42.0291 34.0043 40.6457 34.5602C39.2623 35.1161 38.0032 35.9414 36.9415 36.9882C35.8799 38.0349 35.0369 39.2823 34.4614 40.6577C33.886 42.0331 33.5897 43.5091 33.5897 45C33.5897 46.4909 33.886 47.9669 34.4614 49.3423C35.0369 50.7177 35.8799 51.9651 36.9415 53.0118C38.0032 54.0586 39.2623 54.8839 40.6457 55.4398C42.0291 55.9957 43.5092 56.2711 44.9999 56.25H225C226.491 56.2711 227.971 55.9957 229.354 55.4398C230.738 54.8839 231.997 54.0586 233.058 53.0118C234.12 51.9651 234.963 50.7177 235.538 49.3423C236.114 47.9669 236.41 46.4909 236.41 45C236.41 43.5091 236.114 42.0331 235.538 40.6577C234.963 39.2823 234.12 38.0349 233.058 36.9882C231.997 35.9414 230.738 35.1161 229.354 34.5602C227.971 34.0043 226.491 33.7289 225 33.75H168.75L163.916 28.916C159.81 24.7985 154.241 22.5 148.425 22.5H121.575ZM49.1088 78.75L66.2915 227.966C67.7765 239.104 77.3662 247.5 88.5937 247.5H181.384C192.612 247.5 202.212 239.117 203.708 227.878L220.891 78.75H49.1088Z" fill="#FF4D4D"/>
</svg>
