<svg width="300" height="230" viewBox="0 0 300 230" fill="none" xmlns="http://www.w3.org/2000/svg">
<path d="M41.7468 212.5L150 25L258.253 212.5H41.7468Z" stroke="#FF4D4D" stroke-width="25"/>
<path d="M144.28 158.06L141.83 113.33L140.85 85.4H158.49L157.51 113.33L155.06 158.06H144.28ZM149.67 190.05C146.823 190.05 144.373 189.047 142.32 187.04C140.313 185.033 139.31 182.443 139.31 179.27C139.31 176.143 140.313 173.577 142.32 171.57C144.327 169.563 146.777 168.56 149.67 168.56C152.517 168.56 154.943 169.563 156.95 171.57C159.003 173.577 160.03 176.143 160.03 179.27C160.03 182.49 159.003 185.103 156.95 187.11C154.943 189.07 152.517 190.05 149.67 190.05Z" fill="#FF4D4D"/>
</svg>
