<svg width="225" height="203" viewBox="0 0 225 203" fill="none" xmlns="http://www.w3.org/2000/svg">
<g clip-path="url(#clip0_227_13)">
<path d="M108.2 128.9L106.45 96.95L105.75 77H118.35L117.65 96.95L115.9 128.9H108.2ZM112.05 151.75C110.017 151.75 108.267 151.033 106.8 149.6C105.367 148.167 104.65 146.317 104.65 144.05C104.65 141.817 105.367 139.983 106.8 138.55C108.233 137.117 109.983 136.4 112.05 136.4C114.083 136.4 115.817 137.117 117.25 138.55C118.717 139.983 119.45 141.817 119.45 144.05C119.45 146.35 118.717 148.217 117.25 149.65C115.817 151.05 114.083 151.75 112.05 151.75Z" fill="#FF4D4D"/>
<path d="M125.99 18.5L212.593 168.5C218.366 178.5 211.15 191 199.603 191H26.3975C14.8505 191 7.63358 178.5 13.4071 168.5L100.01 18.5C105.783 8.5 120.217 8.5 125.99 18.5Z" stroke="#FF4D4D" stroke-width="20"/>
</g>
<defs>
<clipPath id="clip0_227_13">
<rect width="225" height="203" rx="5" fill="white"/>
</clipPath>
</defs>
</svg>
