<svg width="300" height="300" viewBox="0 0 300 300" fill="none" xmlns="http://www.w3.org/2000/svg">
<rect width="300" height="300" rx="120" fill="#EA4E2C"/>
<path d="M128.849 68.5C138.472 51.8333 162.528 51.8333 172.151 68.5L239.268 184.75C248.89 201.417 236.862 222.25 217.617 222.25H83.383C64.138 222.25 52.1099 201.417 61.7324 184.75L128.849 68.5Z" fill="white"/>
<path d="M145.12 173.12L143.8 119H155.68L154.47 173.12H145.12ZM149.85 196.55C147.723 196.55 145.963 195.89 144.57 194.57C143.25 193.177 142.59 191.527 142.59 189.62C142.59 187.64 143.25 185.99 144.57 184.67C145.963 183.277 147.723 182.58 149.85 182.58C151.903 182.58 153.59 183.277 154.91 184.67C156.303 185.99 157 187.64 157 189.62C157 191.527 156.303 193.177 154.91 194.57C153.59 195.89 151.903 196.55 149.85 196.55Z" fill="#EA4E2C"/>
</svg>
